/* XPM */
static char * hide_inactive_xpm[] = {
"10 22 19 1",
" 	c None",
".	c #282A30",
"+	c #FC3F4B",
"@	c #D64550",
"#	c #51575D",
"$	c #7F5058",
"%	c #CD454F",
"&	c #F4404B",
"*	c #A54B54",
"=	c #F53F4B",
"-	c #D6444E",
";	c #AC4A53",
">	c #E0424D",
",	c #DB434E",
"'	c #7E5058",
")	c #C74650",
"!	c #DC434E",
"~	c #D8434E",
"{	c #000000",
"..........",
"++++++++++",
"@@@@@@@@@@",
"##########",
"##########",
"##########",
"##########",
"##$%&&%$##",
"#*+=--=+;#",
"$+>####,+'",
"%=######+,",
"&-######)&",
"&-######)&",
"%=######+!",
"$+,####~+$",
"#;++))++;#",
"##',&&!$##",
"##########",
"##########",
"##########",
"##########",
"{{{{{{{{{{"};
