/* XPM */
static char * title_5_inactive_xpm[] = {
"15 22 7 1",
" 	c None",
".	c #282A30",
"+	c #282A2F",
"@	c #FC3F4B",
"#	c #D64550",
"$	c #51575D",
"%	c #000000",
"..........+++++",
"@@@@@@@@@@@@@@@",
"###############",
"$$$$$$$$$$$$$$$",
"$$$$$$$$$$$$$$$",
"$$$$$$$$$$$$$$$",
"$$$$$$$$$$$$$$$",
"$$$$$$$$$$$$$$$",
"$$$$$$$$$$$$$$$",
"$$$$$$$$$$$$$$$",
"$$$$$$$$$$$$$$$",
"$$$$$$$$$$$$$$$",
"$$$$$$$$$$$$$$$",
"$$$$$$$$$$$$$$$",
"$$$$$$$$$$$$$$$",
"$$$$$$$$$$$$$$$",
"$$$$$$$$$$$$$$$",
"$$$$$$$$$$$$$$$",
"$$$$$$$$$$$$$$$",
"$$$$$$$$$$$$$$$",
"$$$$$$$$$$$$$$$",
"%%%%%%%%%%%%%%%"};
